<?xml version="1.0" standalone="no"?>
<!DOCTYPE svg PUBLIC "-//W3C//DTD SVG 20010904//EN"
 "http://www.w3.org/TR/2001/REC-SVG-20010904/DTD/svg10.dtd">
<svg version="1.0" xmlns="http://www.w3.org/2000/svg"
 width="151.000000pt" height="145.000000pt" viewBox="0 0 151.000000 145.000000"
 preserveAspectRatio="xMidYMid meet">

<g transform="translate(0.000000,145.000000) scale(0.100000,-0.100000)"
fill="#000000" stroke="none">
<path d="M650 1304 c-239 -46 -434 -231 -493 -469 -18 -71 -9 -253 16 -321
108 -296 413 -468 707 -398 222 52 405 233 456 450 22 93 15 245 -15 334 -60
174 -214 325 -391 381 -64 21 -224 33 -280 23z m180 -82 c57 -22 96 -66 81
-90 -6 -9 -21 -7 -62 12 -81 35 -186 49 -294 38 -49 -5 -91 -8 -93 -7 -2 2 27
13 65 25 37 12 82 28 98 36 40 20 135 13 205 -14z m203 -56 c60 -41 81 -66 56
-66 -7 0 -27 -14 -44 -30 l-32 -31 -31 30 c-27 24 -32 36 -32 74 0 31 -5 47
-15 51 -8 3 -15 9 -15 14 0 18 55 -2 113 -42z m-266 -43 c40 -8 77 -21 83 -28
18 -21 -3 -26 -352 -86 -73 -12 -99 -22 -169 -65 -31 -18 -62 -34 -68 -34 -35
0 25 97 99 160 30 25 64 41 123 57 91 24 158 23 284 -4z m395 -70 c14 -16 36
-47 48 -70 13 -24 30 -43 37 -43 7 0 13 -9 13 -19 0 -19 -2 -19 -37 -5 -21 9
-51 14 -70 11 -29 -5 -35 -1 -67 43 l-35 49 37 30 c20 17 40 30 43 31 3 0 17
-12 31 -27z m-211 -23 c20 -17 22 -21 9 -29 -61 -39 -485 -468 -549 -556 -16
-22 -39 -50 -51 -62 l-23 -22 -21 27 c-11 15 -24 29 -28 30 -5 2 -8 11 -8 21
0 9 -4 21 -9 27 -5 5 -21 43 -36 84 -22 63 -26 87 -22 147 6 98 38 151 125
204 66 40 241 89 316 89 43 0 162 25 216 45 48 18 55 18 81 -5z m123 -140
c-25 -57 -34 -101 -44 -196 -22 -226 -54 -351 -108 -427 -27 -39 -85 -75 -153
-96 -51 -16 -128 -14 -145 4 -9 8 -27 15 -40 15 -14 0 -42 11 -62 25 -20 14
-40 25 -45 25 -5 0 -30 17 -55 37 -26 21 -49 38 -51 40 -13 9 405 449 569 597
l75 68 33 -38 c21 -24 30 -44 26 -54z m138 -17 c62 -48 72 -75 72 -188 -1 -85
-5 -112 -28 -173 -15 -39 -33 -75 -38 -78 -8 -5 -9 1 -3 17 14 44 17 181 6
240 -7 33 -25 92 -42 132 -16 40 -29 73 -29 75 0 10 33 -3 62 -25z m-72 -73
c70 -137 65 -329 -12 -456 -28 -47 -100 -106 -175 -143 -32 -16 -29 -8 16 52
33 44 44 72 69 177 20 84 32 163 36 241 8 168 27 206 66 129z"/>
</g>
</svg>
